<mxfile host="drawio-plugin" modified="2023-12-15T18:50:16.746Z" agent="5.0 (Windows NT 10.0; Win64; x64) AppleWebKit/537.36 (KHTML, like Gecko) Chrome/111.0.0.0 Safari/537.36" version="20.5.3" etag="zGA34KvZ5JGJAb_wNOMb" type="embed"><diagram id="WX05uieogiDWZdiktmwE" name="Page-1"><mxGraphModel dx="757" dy="691" grid="1" gridSize="10" guides="1" tooltips="1" connect="1" arrows="1" fold="1" page="1" pageScale="1" pageWidth="850" pageHeight="1100" math="0" shadow="0"><root><mxCell id="0"/><mxCell id="1" parent="0"/><mxCell id="2" value="Launcher View Model" style="whiteSpace=wrap;html=1;aspect=fixed;" vertex="1" parent="1"><mxGeometry x="120" y="170" width="100" height="100" as="geometry"/></mxCell><mxCell id="4" style="edgeStyle=orthogonalEdgeStyle;rounded=0;orthogonalLoop=1;jettySize=auto;html=1;exitX=0;exitY=0.5;exitDx=0;exitDy=0;entryX=1;entryY=0.5;entryDx=0;entryDy=0;" edge="1" parent="1" source="3" target="2"><mxGeometry relative="1" as="geometry"/></mxCell><mxCell id="3" value="Project List" style="shape=hexagon;perimeter=hexagonPerimeter2;whiteSpace=wrap;html=1;fixedSize=1;" vertex="1" parent="1"><mxGeometry x="310" y="80" width="120" height="80" as="geometry"/></mxCell></root></mxGraphModel></diagram></mxfile>